<svg width="216" height="167" viewBox="0 0 216 167" fill="none" xmlns="http://www.w3.org/2000/svg">
<g clip-path="url(#clip0_131_88)">
<path d="M144.174 138.107L180 137.91C189.502 137.857 198.596 134.905 205.282 129.703C211.968 124.501 215.698 117.475 215.652 110.171L215.479 82.6291C215.455 78.9769 213.546 75.4846 210.17 72.9206C206.795 70.3566 202.229 68.9308 197.479 68.957L144.545 69.2487C146.61 59.6213 153.033 50.8567 162.679 44.5037C172.325 38.1506 184.574 34.618 197.261 34.53C199.637 34.5169 201.91 33.7789 203.582 32.4784C205.253 31.1779 206.186 29.4214 206.174 27.5952C206.163 25.7691 205.208 24.023 203.52 22.741C201.832 21.459 199.55 20.7461 197.174 20.7592C178.178 20.8803 160.002 26.7893 146.634 37.1899C133.266 47.5905 125.799 61.6332 125.87 76.2373L126.174 124.435C126.197 128.087 128.106 131.58 131.482 134.144C134.858 136.708 139.423 138.133 144.174 138.107V138.107Z" fill="#C2A7FF"/>
<path d="M18.7811 138.798L54.6072 138.601C64.1089 138.548 73.2031 135.597 79.8892 130.394C86.5753 125.192 90.3056 118.166 90.2595 110.862L90.0857 83.3201C90.0626 79.6679 88.1532 76.1756 84.7776 73.6116C81.4019 71.0476 76.8365 69.6219 72.0857 69.6481L19.1525 69.9398C21.217 60.3123 27.6397 51.5478 37.286 45.1947C46.9322 38.8417 59.1811 35.3091 71.8684 35.221C74.2438 35.2079 76.5173 34.47 78.1888 33.1694C79.8604 31.8689 80.7929 30.1124 80.7814 28.2863C80.7699 26.4601 79.8152 24.714 78.1274 23.432C76.4396 22.15 74.1568 21.4371 71.7814 21.4502C52.7847 21.5713 34.6087 27.4804 21.2411 37.8809C7.87354 48.2815 0.406002 62.3243 0.476853 76.9283L0.781101 125.126C0.804155 128.778 2.71353 132.271 6.08919 134.835C9.46484 137.399 14.0303 138.824 18.7811 138.798V138.798Z" fill="#C2A7FF"/>
</g>
<defs>
<clipPath id="clip0_131_88">
<rect width="214.96" height="165.253" fill="white" transform="matrix(-0.999985 0.00551082 -0.00631234 -0.99998 216 165.25)"/>
</clipPath>
</defs>
</svg>
