<svg width="45" height="29" viewBox="0 0 45 29" fill="none" xmlns="http://www.w3.org/2000/svg">
<path d="M5.3725 0C2.40625 0 0 2.0625 0 4.605C0 4.6725 -1.33645e-07 4.7325 0.00874987 4.8H0V24C0 26.6475 2.51125 28.8 5.6 28.8H39.2C42.2887 28.8 44.8 26.6475 44.8 24V4.8H44.7913C44.7913 4.7325 44.8 4.6725 44.8 4.605C44.8 2.0625 42.3937 0 39.4275 0H5.3725ZM40.6 9.6225V24C40.6 24.66 39.97 25.2 39.2 25.2H5.6C4.83 25.2 4.2 24.66 4.2 24V9.6225L17.745 18.4275C20.4925 20.22 24.2987 20.22 27.055 18.4275L40.6 9.6225ZM4.2 4.605C4.2 4.05 4.725 3.6 5.3725 3.6H39.4275C40.075 3.6 40.6 4.05 40.6 4.605C40.6 4.92 40.425 5.22 40.1362 5.4075L24.5175 15.5625C23.2663 16.3725 21.5337 16.3725 20.2825 15.5625L4.66375 5.4075C4.375 5.22 4.2 4.92 4.2 4.605Z" fill="#6D28D9"/>
</svg>
