<svg width="42" height="33" viewBox="0 0 42 33" fill="none" xmlns="http://www.w3.org/2000/svg">
<path d="M0.0109345 12.085C0.0109345 5.40816 9.41474 0 21.0055 0C32.5962 0 42 5.40816 42 12.085C42 19.7295 28.8565 28.8926 23.3674 32.3849C22.0771 33.205 19.9229 33.205 18.6326 32.3849C13.1435 28.8926 0 19.7295 0 12.085H0.0109345ZM21.0055 16.4039C24.8654 16.4039 28.0036 14.5649 28.0036 12.3029C28.0036 10.041 24.8654 8.20194 21.0055 8.20194C17.1455 8.20194 14.0073 10.041 14.0073 12.3029C14.0073 14.5649 17.1455 16.4039 21.0055 16.4039Z" fill="#6F22D4"/>
</svg>
