<svg width="52" height="49" viewBox="0 0 52 49" fill="none" xmlns="http://www.w3.org/2000/svg">
<path d="M7.4 0C3.31844 0 0 3.13906 0 7V42C0 45.8609 3.31844 49 7.4 49H18.7544V33.0531H12.6494V24.5H18.7544V20.8141C18.7544 11.2875 23.31 6.86875 33.2075 6.86875C35.0806 6.86875 38.3181 7.21875 39.6478 7.56875V15.3125C38.9541 15.2469 37.74 15.2031 36.2253 15.2031C31.3691 15.2031 29.4959 16.9422 29.4959 21.4594V24.5H39.1622L37.4972 33.0531H29.4844V49H44.4C48.4816 49 51.8 45.8609 51.8 42V7C51.8 3.13906 48.4816 0 44.4 0H7.4Z" fill="#6F22D4"/>
</svg>
