<svg width="79" height="72" viewBox="0 0 79 72" fill="none" xmlns="http://www.w3.org/2000/svg">
<path d="M11.85 18C11.85 16.0088 13.6151 14.4 15.8 14.4H63.2C65.3848 14.4 67.15 16.0088 67.15 18C67.15 19.9913 65.3848 21.6 63.2 21.6H15.8C13.6151 21.6 11.85 19.9913 11.85 18ZM11.85 36C11.85 34.0088 13.6151 32.4 15.8 32.4H63.2C65.3848 32.4 67.15 34.0088 67.15 36C67.15 37.9913 65.3848 39.6 63.2 39.6H15.8C13.6151 39.6 11.85 37.9913 11.85 36ZM67.15 54C67.15 55.9913 65.3848 57.6 63.2 57.6H15.8C13.6151 57.6 11.85 55.9913 11.85 54C11.85 52.0088 13.6151 50.4 15.8 50.4H63.2C65.3848 50.4 67.15 52.0088 67.15 54Z" fill="#6F22D4"/>
</svg>
