<svg width="53" height="50" viewBox="0 0 53 50" fill="none" xmlns="http://www.w3.org/2000/svg">
<path d="M15.2822 0.671875C19.6006 0.443124 32.5792 0.443122 36.8975 0.671875H36.9004C41.052 0.866167 44.6395 1.74726 47.5859 4.49707L47.5869 4.49805C50.5379 7.24184 51.4743 10.5721 51.6699 14.4268V14.4277L51.6709 14.4326C51.9157 18.4596 51.9157 30.5573 51.6709 34.584V34.5879C51.4702 38.3236 50.5846 41.5669 47.8564 44.2607L47.5859 44.5195C44.6397 47.2798 41.0521 48.1613 36.9014 48.3447H36.8975C32.5792 48.5735 19.6006 48.5735 15.2822 48.3447H15.2793C11.1282 48.1505 7.55053 47.2695 4.5918 44.5186C4.29495 44.2424 4.04962 43.8083 3.86719 43.2031C3.68559 42.6007 3.57665 41.862 3.52832 41.0156C3.4316 39.3219 3.58139 37.2668 3.8252 35.1514C3.91414 34.3796 4.01717 33.6047 4.12207 32.8398C4.24189 35.2704 4.52078 37.6408 5.16309 39.1523V39.1543C6.14552 41.4408 8.0228 43.1866 10.4414 44.085H10.4424C12.2527 44.7516 15.2477 44.9968 18.2002 45.084C21.1713 45.1717 24.2027 45.1006 26.0957 45.1006C27.9879 45.1006 31.0171 45.1743 33.9863 45.0879C36.9375 45.002 39.9334 44.7574 41.75 44.085L41.751 44.084C44.1794 43.1751 46.0572 41.4298 47.0283 39.1523C47.7556 37.4464 48.0174 34.6343 48.1094 31.8799C48.202 29.1053 48.123 26.2699 48.123 24.5078C48.1231 22.7457 48.202 19.9136 48.1094 17.1406C48.0174 14.3871 47.7554 11.5753 47.0283 9.86426L47.0273 9.8623C46.0449 7.57586 44.1686 5.82997 41.75 4.93164H41.749C39.9387 4.26499 36.9436 4.01984 33.9912 3.93262C31.0201 3.84485 27.9888 3.91601 26.0957 3.91602C24.2035 3.91602 21.1735 3.84232 18.2041 3.92871C15.2531 4.01458 12.2579 4.25921 10.4414 4.93164H10.4395C8.01122 5.84053 6.1342 7.58601 5.16309 9.86328L5.16211 9.86523C4.44139 11.5703 4.17935 14.3812 4.08594 17.1357C4.03699 18.579 4.03445 20.0383 4.04297 21.3545C3.57841 20.5599 3.02082 19.8378 2.50391 19.1494C1.35411 17.6183 0.39827 16.2383 0.508789 14.4209V14.418C0.715998 10.5608 1.64156 7.23065 4.5918 4.4873C7.55032 1.73652 11.1397 0.855301 15.2783 0.671875H15.2822ZM26.0938 12.4414C33.2926 12.4626 39.0592 17.9136 39.0371 24.5498C39.0147 31.1878 33.224 36.6188 26.0264 36.5977C18.8276 36.5763 13.0617 31.1245 13.084 24.4883C13.1064 17.8504 18.8962 12.4204 26.0938 12.4414ZM26.0234 15.8594C20.9532 15.8823 16.7933 19.7392 16.8184 24.5547C16.8435 29.3677 21.0255 33.2016 26.0977 33.1787C31.1678 33.1557 35.3278 29.2989 35.3027 24.4834C35.2775 19.6706 31.0953 15.8366 26.0234 15.8594ZM40.1113 8.99609C41.6025 8.99617 42.7518 10.1162 42.752 11.4268C42.752 12.7374 41.6025 13.8583 40.1113 13.8584C38.62 13.8584 37.4707 12.7374 37.4707 11.4268C37.4708 10.1162 38.6201 8.99609 40.1113 8.99609Z" fill="#6F22D4" stroke="black"/>
</svg>
