<svg width="39" height="36" viewBox="0 0 39 36" fill="none" xmlns="http://www.w3.org/2000/svg">
<path d="M12.1975 1.7588C11.5957 0.429793 10.0265 -0.273383 8.53347 0.0993001L8.1145 0.204776C3.19353 1.44237 -1.01139 5.84425 0.215043 11.2024C3.04117 23.508 13.5306 33.1908 26.8614 35.7995C32.6737 36.9387 37.4347 33.0501 38.7753 28.5076L38.8896 28.1209C39.301 26.7356 38.5316 25.2871 37.0995 24.7386L29.6875 21.8907C28.4306 21.4055 26.9757 21.7431 26.1073 22.7205L23.1669 26.0395C17.8117 23.5854 13.5001 19.4788 11.0244 14.4371L14.3914 11.9056C15.4502 11.111 15.8083 9.76797 15.2903 8.6007L12.1975 1.7588Z" fill="#6F22D4"/>
</svg>
